<mxfile host="app.diagrams.net" modified="2023-07-10T09:44:22.895Z" agent="Mozilla/5.0 (Windows NT 10.0; Win64; x64) AppleWebKit/537.36 (KHTML, like Gecko) Chrome/114.0.0.0 Safari/537.36 Edg/114.0.1823.67" etag="SUAZZN9XU-7EPxIUe3xd" version="21.6.1" type="github">
  <diagram name="Page-1" id="lnvQF_arpNL27M4O3w8T">
    <mxGraphModel dx="2072" dy="1698" grid="1" gridSize="10" guides="1" tooltips="1" connect="1" arrows="1" fold="1" page="1" pageScale="1" pageWidth="850" pageHeight="1100" math="0" shadow="0">
      <root>
        <mxCell id="0" />
        <mxCell id="1" parent="0" />
        <mxCell id="_bViFIgrCbP23LB_-BVB-1" value="Staff" style="whiteSpace=wrap;html=1;align=center;" parent="1" vertex="1">
          <mxGeometry x="260" y="-50" width="100" height="40" as="geometry" />
        </mxCell>
        <mxCell id="_bViFIgrCbP23LB_-BVB-2" value="Employee_no" style="ellipse;whiteSpace=wrap;html=1;align=center;fontStyle=4;" parent="1" vertex="1">
          <mxGeometry x="130" y="-110" width="100" height="40" as="geometry" />
        </mxCell>
        <mxCell id="_bViFIgrCbP23LB_-BVB-3" value="name" style="ellipse;whiteSpace=wrap;html=1;align=center;" parent="1" vertex="1">
          <mxGeometry x="120" y="-50" width="100" height="40" as="geometry" />
        </mxCell>
        <mxCell id="_bViFIgrCbP23LB_-BVB-4" value="gender" style="ellipse;whiteSpace=wrap;html=1;align=center;" parent="1" vertex="1">
          <mxGeometry x="245" y="-110" width="100" height="40" as="geometry" />
        </mxCell>
        <mxCell id="_bViFIgrCbP23LB_-BVB-5" value="address" style="ellipse;whiteSpace=wrap;html=1;align=center;" parent="1" vertex="1">
          <mxGeometry x="370" y="-100" width="100" height="40" as="geometry" />
        </mxCell>
        <mxCell id="_bViFIgrCbP23LB_-BVB-6" value="telephone_number" style="ellipse;whiteSpace=wrap;html=1;align=center;" parent="1" vertex="1">
          <mxGeometry x="410" y="-60" width="120" height="40" as="geometry" />
        </mxCell>
        <mxCell id="kDbeRx198hkHHgi6UkS8-1" value="" style="endArrow=none;html=1;rounded=0;entryX=0.65;entryY=0.975;entryDx=0;entryDy=0;entryPerimeter=0;exitX=0;exitY=0;exitDx=0;exitDy=0;" parent="1" source="_bViFIgrCbP23LB_-BVB-1" target="_bViFIgrCbP23LB_-BVB-2" edge="1">
          <mxGeometry width="50" height="50" relative="1" as="geometry">
            <mxPoint x="270" y="10" as="sourcePoint" />
            <mxPoint x="320" y="-40" as="targetPoint" />
          </mxGeometry>
        </mxCell>
        <mxCell id="kDbeRx198hkHHgi6UkS8-2" value="" style="endArrow=none;html=1;rounded=0;exitX=0.5;exitY=0;exitDx=0;exitDy=0;entryX=0.65;entryY=1;entryDx=0;entryDy=0;entryPerimeter=0;" parent="1" source="_bViFIgrCbP23LB_-BVB-1" target="_bViFIgrCbP23LB_-BVB-4" edge="1">
          <mxGeometry width="50" height="50" relative="1" as="geometry">
            <mxPoint x="360" y="-40" as="sourcePoint" />
            <mxPoint x="310" y="-60" as="targetPoint" />
          </mxGeometry>
        </mxCell>
        <mxCell id="kDbeRx198hkHHgi6UkS8-3" value="" style="endArrow=none;html=1;rounded=0;entryX=0.3;entryY=1;entryDx=0;entryDy=0;entryPerimeter=0;exitX=1;exitY=0;exitDx=0;exitDy=0;" parent="1" source="_bViFIgrCbP23LB_-BVB-1" target="_bViFIgrCbP23LB_-BVB-5" edge="1">
          <mxGeometry width="50" height="50" relative="1" as="geometry">
            <mxPoint x="410" y="-60" as="sourcePoint" />
            <mxPoint x="335" y="-131" as="targetPoint" />
          </mxGeometry>
        </mxCell>
        <mxCell id="kDbeRx198hkHHgi6UkS8-4" value="" style="endArrow=none;html=1;rounded=0;entryX=0;entryY=0.5;entryDx=0;entryDy=0;exitX=1;exitY=0.25;exitDx=0;exitDy=0;" parent="1" source="_bViFIgrCbP23LB_-BVB-1" target="_bViFIgrCbP23LB_-BVB-6" edge="1">
          <mxGeometry width="50" height="50" relative="1" as="geometry">
            <mxPoint x="420" y="10" as="sourcePoint" />
            <mxPoint x="345" y="-61" as="targetPoint" />
          </mxGeometry>
        </mxCell>
        <mxCell id="kDbeRx198hkHHgi6UkS8-5" value="" style="endArrow=none;html=1;rounded=0;entryX=1;entryY=0.5;entryDx=0;entryDy=0;exitX=0;exitY=0.5;exitDx=0;exitDy=0;" parent="1" source="_bViFIgrCbP23LB_-BVB-1" target="_bViFIgrCbP23LB_-BVB-3" edge="1">
          <mxGeometry width="50" height="50" relative="1" as="geometry">
            <mxPoint x="420" y="10" as="sourcePoint" />
            <mxPoint x="345" y="-61" as="targetPoint" />
          </mxGeometry>
        </mxCell>
        <mxCell id="kDbeRx198hkHHgi6UkS8-6" value="Nurse" style="whiteSpace=wrap;html=1;align=center;" parent="1" vertex="1">
          <mxGeometry x="620" y="130" width="100" height="40" as="geometry" />
        </mxCell>
        <mxCell id="kDbeRx198hkHHgi6UkS8-9" value="skillType" style="ellipse;whiteSpace=wrap;html=1;align=center;" parent="1" vertex="1">
          <mxGeometry x="520" y="200" width="100" height="30" as="geometry" />
        </mxCell>
        <mxCell id="kDbeRx198hkHHgi6UkS8-11" value="" style="endArrow=none;html=1;rounded=0;entryX=0.5;entryY=0;entryDx=0;entryDy=0;exitX=0.25;exitY=1;exitDx=0;exitDy=0;" parent="1" source="kDbeRx198hkHHgi6UkS8-6" target="kDbeRx198hkHHgi6UkS8-9" edge="1">
          <mxGeometry width="50" height="50" relative="1" as="geometry">
            <mxPoint x="320" y="80" as="sourcePoint" />
            <mxPoint x="575" y="200" as="targetPoint" />
          </mxGeometry>
        </mxCell>
        <mxCell id="kDbeRx198hkHHgi6UkS8-12" value="" style="endArrow=none;html=1;rounded=0;exitX=0.5;exitY=1;exitDx=0;exitDy=0;entryX=0.5;entryY=0;entryDx=0;entryDy=0;" parent="1" source="kDbeRx198hkHHgi6UkS8-6" target="kDbeRx198hkHHgi6UkS8-34" edge="1">
          <mxGeometry width="50" height="50" relative="1" as="geometry">
            <mxPoint x="620" y="100" as="sourcePoint" />
            <mxPoint x="675" y="200" as="targetPoint" />
          </mxGeometry>
        </mxCell>
        <mxCell id="kDbeRx198hkHHgi6UkS8-30" value="" style="endArrow=none;html=1;rounded=0;entryX=0.75;entryY=1;entryDx=0;entryDy=0;exitX=0.32;exitY=0.1;exitDx=0;exitDy=0;exitPerimeter=0;" parent="1" source="kDbeRx198hkHHgi6UkS8-33" target="kDbeRx198hkHHgi6UkS8-6" edge="1">
          <mxGeometry width="50" height="50" relative="1" as="geometry">
            <mxPoint x="720" y="195" as="sourcePoint" />
            <mxPoint x="747" y="161" as="targetPoint" />
          </mxGeometry>
        </mxCell>
        <mxCell id="kDbeRx198hkHHgi6UkS8-33" value="grade" style="ellipse;whiteSpace=wrap;html=1;align=center;" parent="1" vertex="1">
          <mxGeometry x="820" y="160" width="100" height="30" as="geometry" />
        </mxCell>
        <mxCell id="kDbeRx198hkHHgi6UkS8-34" value="Year" style="ellipse;whiteSpace=wrap;html=1;align=center;" parent="1" vertex="1">
          <mxGeometry x="780" y="205" width="100" height="35" as="geometry" />
        </mxCell>
        <mxCell id="kDbeRx198hkHHgi6UkS8-35" value="Doctor" style="whiteSpace=wrap;html=1;align=center;" parent="1" vertex="1">
          <mxGeometry x="122.5" y="215" width="100" height="40" as="geometry" />
        </mxCell>
        <mxCell id="kDbeRx198hkHHgi6UkS8-36" value="" style="endArrow=none;html=1;rounded=0;exitX=0.25;exitY=1;exitDx=0;exitDy=0;" parent="1" source="kDbeRx198hkHHgi6UkS8-35" target="kDbeRx198hkHHgi6UkS8-41" edge="1">
          <mxGeometry width="50" height="50" relative="1" as="geometry">
            <mxPoint x="-177.5" y="165" as="sourcePoint" />
            <mxPoint x="120" y="305" as="targetPoint" />
          </mxGeometry>
        </mxCell>
        <mxCell id="kDbeRx198hkHHgi6UkS8-39" value="speciality" style="ellipse;whiteSpace=wrap;html=1;align=center;" parent="1" vertex="1">
          <mxGeometry x="-50" y="190" width="100" height="35" as="geometry" />
        </mxCell>
        <mxCell id="kDbeRx198hkHHgi6UkS8-40" value="Head_Doctor" style="whiteSpace=wrap;html=1;align=center;" parent="1" vertex="1">
          <mxGeometry x="108" y="365" width="100" height="40" as="geometry" />
        </mxCell>
        <mxCell id="kDbeRx198hkHHgi6UkS8-41" value="d" style="ellipse;whiteSpace=wrap;html=1;aspect=fixed;" parent="1" vertex="1">
          <mxGeometry x="125" y="285" width="30" height="30" as="geometry" />
        </mxCell>
        <mxCell id="kDbeRx198hkHHgi6UkS8-43" value="Hd_number" style="ellipse;whiteSpace=wrap;html=1;align=center;" parent="1" vertex="1">
          <mxGeometry x="128" y="420" width="100" height="35" as="geometry" />
        </mxCell>
        <mxCell id="kDbeRx198hkHHgi6UkS8-44" value="" style="endArrow=none;html=1;rounded=0;exitX=0.5;exitY=1;exitDx=0;exitDy=0;entryX=0.5;entryY=0;entryDx=0;entryDy=0;" parent="1" source="kDbeRx198hkHHgi6UkS8-40" target="kDbeRx198hkHHgi6UkS8-43" edge="1">
          <mxGeometry width="50" height="50" relative="1" as="geometry">
            <mxPoint x="210" y="285" as="sourcePoint" />
            <mxPoint x="260" y="235" as="targetPoint" />
          </mxGeometry>
        </mxCell>
        <mxCell id="kDbeRx198hkHHgi6UkS8-50" value="" style="verticalLabelPosition=bottom;verticalAlign=top;html=1;shape=mxgraph.basic.arc;startAngle=0.25;endAngle=0.9394405292045783;direction=north;" parent="1" vertex="1">
          <mxGeometry x="208" y="315" width="20" height="20" as="geometry" />
        </mxCell>
        <mxCell id="kDbeRx198hkHHgi6UkS8-51" value="surgeon" style="whiteSpace=wrap;html=1;align=center;" parent="1" vertex="1">
          <mxGeometry x="260" y="345" width="100" height="40" as="geometry" />
        </mxCell>
        <mxCell id="kDbeRx198hkHHgi6UkS8-53" value="" style="endArrow=none;html=1;rounded=0;exitX=0.5;exitY=1;exitDx=0;exitDy=0;entryX=0.11;entryY=0.025;entryDx=0;entryDy=0;entryPerimeter=0;" parent="1" source="kDbeRx198hkHHgi6UkS8-41" target="kDbeRx198hkHHgi6UkS8-40" edge="1">
          <mxGeometry width="50" height="50" relative="1" as="geometry">
            <mxPoint x="140" y="315" as="sourcePoint" />
            <mxPoint x="65" y="355" as="targetPoint" />
          </mxGeometry>
        </mxCell>
        <mxCell id="kDbeRx198hkHHgi6UkS8-48" value="" style="verticalLabelPosition=bottom;verticalAlign=top;html=1;shape=mxgraph.basic.arc;startAngle=0.31055947079542173;endAngle=0.8593104239618465;direction=east;" parent="1" vertex="1">
          <mxGeometry x="120" y="330" width="20" height="20" as="geometry" />
        </mxCell>
        <mxCell id="kDbeRx198hkHHgi6UkS8-54" value="" style="endArrow=none;html=1;rounded=0;exitX=1;exitY=1;exitDx=0;exitDy=0;entryX=0.442;entryY=0;entryDx=0;entryDy=0;entryPerimeter=0;" parent="1" source="kDbeRx198hkHHgi6UkS8-41" target="kDbeRx198hkHHgi6UkS8-51" edge="1">
          <mxGeometry width="50" height="50" relative="1" as="geometry">
            <mxPoint x="400" y="275" as="sourcePoint" />
            <mxPoint x="220" y="275" as="targetPoint" />
          </mxGeometry>
        </mxCell>
        <mxCell id="kDbeRx198hkHHgi6UkS8-55" value="" style="endArrow=none;html=1;rounded=0;exitX=0;exitY=0.75;exitDx=0;exitDy=0;entryX=0.68;entryY=0.962;entryDx=0;entryDy=0;entryPerimeter=0;" parent="1" source="kDbeRx198hkHHgi6UkS8-35" target="kDbeRx198hkHHgi6UkS8-39" edge="1">
          <mxGeometry width="50" height="50" relative="1" as="geometry">
            <mxPoint x="400" y="275" as="sourcePoint" />
            <mxPoint x="450" y="225" as="targetPoint" />
          </mxGeometry>
        </mxCell>
        <mxCell id="kDbeRx198hkHHgi6UkS8-56" value="Patient" style="whiteSpace=wrap;html=1;align=center;" parent="1" vertex="1">
          <mxGeometry x="280" y="767.5" width="100" height="40" as="geometry" />
        </mxCell>
        <mxCell id="kDbeRx198hkHHgi6UkS8-57" value="&lt;u&gt;ID_number&lt;/u&gt;" style="ellipse;whiteSpace=wrap;html=1;align=center;" parent="1" vertex="1">
          <mxGeometry x="180" y="865" width="100" height="30" as="geometry" />
        </mxCell>
        <mxCell id="kDbeRx198hkHHgi6UkS8-58" value="" style="endArrow=none;html=1;rounded=0;entryX=0.5;entryY=0;entryDx=0;entryDy=0;exitX=0.25;exitY=1;exitDx=0;exitDy=0;" parent="1" source="kDbeRx198hkHHgi6UkS8-56" target="kDbeRx198hkHHgi6UkS8-57" edge="1">
          <mxGeometry width="50" height="50" relative="1" as="geometry">
            <mxPoint x="-20" y="745" as="sourcePoint" />
            <mxPoint x="235" y="865" as="targetPoint" />
          </mxGeometry>
        </mxCell>
        <mxCell id="kDbeRx198hkHHgi6UkS8-60" value="" style="endArrow=none;html=1;rounded=0;entryX=0.75;entryY=1;entryDx=0;entryDy=0;exitX=0.32;exitY=0.1;exitDx=0;exitDy=0;exitPerimeter=0;" parent="1" source="kDbeRx198hkHHgi6UkS8-61" target="kDbeRx198hkHHgi6UkS8-56" edge="1">
          <mxGeometry width="50" height="50" relative="1" as="geometry">
            <mxPoint x="380" y="860" as="sourcePoint" />
            <mxPoint x="407" y="826" as="targetPoint" />
          </mxGeometry>
        </mxCell>
        <mxCell id="kDbeRx198hkHHgi6UkS8-61" value="blood_type" style="ellipse;whiteSpace=wrap;html=1;align=center;" parent="1" vertex="1">
          <mxGeometry x="382" y="860" width="100" height="30" as="geometry" />
        </mxCell>
        <mxCell id="kDbeRx198hkHHgi6UkS8-62" value="age" style="ellipse;whiteSpace=wrap;html=1;align=center;" parent="1" vertex="1">
          <mxGeometry x="440" y="710" width="100" height="35" as="geometry" />
        </mxCell>
        <mxCell id="kDbeRx198hkHHgi6UkS8-63" value="tele_number" style="ellipse;whiteSpace=wrap;html=1;align=center;" parent="1" vertex="1">
          <mxGeometry x="410" y="805" width="100" height="30" as="geometry" />
        </mxCell>
        <mxCell id="kDbeRx198hkHHgi6UkS8-64" value="address" style="ellipse;shape=doubleEllipse;whiteSpace=wrap;html=1;" parent="1" vertex="1">
          <mxGeometry x="140" y="815" width="100" height="30" as="geometry" />
        </mxCell>
        <mxCell id="kDbeRx198hkHHgi6UkS8-65" value="name" style="ellipse;whiteSpace=wrap;html=1;align=center;" parent="1" vertex="1">
          <mxGeometry x="420" y="760" width="100" height="30" as="geometry" />
        </mxCell>
        <mxCell id="kDbeRx198hkHHgi6UkS8-66" value="surname" style="ellipse;whiteSpace=wrap;html=1;align=center;dashed=1;" parent="1" vertex="1">
          <mxGeometry x="540" y="720" width="100" height="30" as="geometry" />
        </mxCell>
        <mxCell id="kDbeRx198hkHHgi6UkS8-67" value="initial" style="ellipse;whiteSpace=wrap;html=1;align=center;dashed=1;" parent="1" vertex="1">
          <mxGeometry x="550" y="777.5" width="100" height="30" as="geometry" />
        </mxCell>
        <mxCell id="kDbeRx198hkHHgi6UkS8-71" value="" style="endArrow=none;dashed=1;html=1;rounded=0;entryX=0.069;entryY=0.226;entryDx=0;entryDy=0;exitX=1;exitY=0.5;exitDx=0;exitDy=0;entryPerimeter=0;" parent="1" source="kDbeRx198hkHHgi6UkS8-65" target="kDbeRx198hkHHgi6UkS8-67" edge="1">
          <mxGeometry width="50" height="50" relative="1" as="geometry">
            <mxPoint x="340" y="755" as="sourcePoint" />
            <mxPoint x="550" y="790" as="targetPoint" />
          </mxGeometry>
        </mxCell>
        <mxCell id="kDbeRx198hkHHgi6UkS8-72" value="" style="endArrow=none;dashed=1;html=1;rounded=0;entryX=0;entryY=0.5;entryDx=0;entryDy=0;exitX=1;exitY=0.5;exitDx=0;exitDy=0;" parent="1" source="kDbeRx198hkHHgi6UkS8-65" edge="1">
          <mxGeometry width="50" height="50" relative="1" as="geometry">
            <mxPoint x="340" y="755" as="sourcePoint" />
            <mxPoint x="550" y="740" as="targetPoint" />
          </mxGeometry>
        </mxCell>
        <mxCell id="kDbeRx198hkHHgi6UkS8-73" value="alergies" style="ellipse;whiteSpace=wrap;html=1;align=center;" parent="1" vertex="1">
          <mxGeometry x="120" y="775" width="100" height="25" as="geometry" />
        </mxCell>
        <mxCell id="kDbeRx198hkHHgi6UkS8-74" value="" style="endArrow=none;html=1;rounded=0;exitX=1;exitY=0.5;exitDx=0;exitDy=0;entryX=0;entryY=0.75;entryDx=0;entryDy=0;" parent="1" source="kDbeRx198hkHHgi6UkS8-64" target="kDbeRx198hkHHgi6UkS8-56" edge="1">
          <mxGeometry width="50" height="50" relative="1" as="geometry">
            <mxPoint x="340" y="755" as="sourcePoint" />
            <mxPoint x="390" y="705" as="targetPoint" />
          </mxGeometry>
        </mxCell>
        <mxCell id="kDbeRx198hkHHgi6UkS8-75" value="" style="endArrow=none;html=1;rounded=0;exitX=1;exitY=0.5;exitDx=0;exitDy=0;entryX=0;entryY=0.25;entryDx=0;entryDy=0;" parent="1" source="kDbeRx198hkHHgi6UkS8-73" target="kDbeRx198hkHHgi6UkS8-56" edge="1">
          <mxGeometry width="50" height="50" relative="1" as="geometry">
            <mxPoint x="340" y="755" as="sourcePoint" />
            <mxPoint x="390" y="705" as="targetPoint" />
          </mxGeometry>
        </mxCell>
        <mxCell id="kDbeRx198hkHHgi6UkS8-76" value="" style="endArrow=none;html=1;rounded=0;exitX=0;exitY=0.5;exitDx=0;exitDy=0;entryX=1;entryY=0.5;entryDx=0;entryDy=0;" parent="1" source="kDbeRx198hkHHgi6UkS8-65" target="kDbeRx198hkHHgi6UkS8-56" edge="1">
          <mxGeometry width="50" height="50" relative="1" as="geometry">
            <mxPoint x="340" y="755" as="sourcePoint" />
            <mxPoint x="390" y="705" as="targetPoint" />
          </mxGeometry>
        </mxCell>
        <mxCell id="kDbeRx198hkHHgi6UkS8-77" value="Surgery" style="whiteSpace=wrap;html=1;align=center;" parent="1" vertex="1">
          <mxGeometry x="860" y="450" width="100" height="40" as="geometry" />
        </mxCell>
        <mxCell id="kDbeRx198hkHHgi6UkS8-79" value="surgery_name" style="ellipse;whiteSpace=wrap;html=1;align=center;" parent="1" vertex="1">
          <mxGeometry x="460" y="488" width="100" height="30" as="geometry" />
        </mxCell>
        <mxCell id="kDbeRx198hkHHgi6UkS8-80" value="time" style="ellipse;whiteSpace=wrap;html=1;align=center;" parent="1" vertex="1">
          <mxGeometry x="332" y="496" width="100" height="30" as="geometry" />
        </mxCell>
        <mxCell id="kDbeRx198hkHHgi6UkS8-81" value="special_needs" style="ellipse;whiteSpace=wrap;html=1;align=center;" parent="1" vertex="1">
          <mxGeometry x="360" y="455" width="100" height="28.5" as="geometry" />
        </mxCell>
        <mxCell id="kDbeRx198hkHHgi6UkS8-82" value="date" style="ellipse;whiteSpace=wrap;html=1;align=center;" parent="1" vertex="1">
          <mxGeometry x="217" y="518" width="100" height="30" as="geometry" />
        </mxCell>
        <mxCell id="kDbeRx198hkHHgi6UkS8-83" value="category" style="ellipse;whiteSpace=wrap;html=1;align=center;" parent="1" vertex="1">
          <mxGeometry x="205" y="581" width="100" height="30" as="geometry" />
        </mxCell>
        <mxCell id="kDbeRx198hkHHgi6UkS8-84" value="" style="verticalLabelPosition=bottom;verticalAlign=top;html=1;shape=mxgraph.basic.arc;startAngle=0.25;endAngle=0.8739023971041459;direction=north;" parent="1" vertex="1">
          <mxGeometry x="448" y="84" width="20" height="20" as="geometry" />
        </mxCell>
        <mxCell id="kDbeRx198hkHHgi6UkS8-85" value="" style="verticalLabelPosition=bottom;verticalAlign=top;html=1;shape=mxgraph.basic.arc;startAngle=0.5951697302752627;endAngle=0.17908417224851933;direction=north;" parent="1" vertex="1">
          <mxGeometry x="221" y="114" width="20" height="20" as="geometry" />
        </mxCell>
        <mxCell id="kDbeRx198hkHHgi6UkS8-86" value="" style="endArrow=none;html=1;rounded=0;exitX=0.167;exitY=0.022;exitDx=0;exitDy=0;exitPerimeter=0;entryX=0.5;entryY=1;entryDx=0;entryDy=0;" parent="1" source="kDbeRx198hkHHgi6UkS8-35" target="kDbeRx198hkHHgi6UkS8-88" edge="1">
          <mxGeometry width="50" height="50" relative="1" as="geometry">
            <mxPoint x="90" y="160" as="sourcePoint" />
            <mxPoint x="260" y="160" as="targetPoint" />
          </mxGeometry>
        </mxCell>
        <mxCell id="kDbeRx198hkHHgi6UkS8-87" value="" style="endArrow=none;html=1;rounded=0;exitX=0;exitY=0.25;exitDx=0;exitDy=0;entryX=0.964;entryY=0.709;entryDx=0;entryDy=0;entryPerimeter=0;" parent="1" source="kDbeRx198hkHHgi6UkS8-6" target="kDbeRx198hkHHgi6UkS8-88" edge="1">
          <mxGeometry width="50" height="50" relative="1" as="geometry">
            <mxPoint x="695.25" y="200" as="sourcePoint" />
            <mxPoint x="430" y="150" as="targetPoint" />
          </mxGeometry>
        </mxCell>
        <mxCell id="kDbeRx198hkHHgi6UkS8-88" value="d" style="ellipse;whiteSpace=wrap;html=1;aspect=fixed;" parent="1" vertex="1">
          <mxGeometry x="280" y="30" width="30" height="30" as="geometry" />
        </mxCell>
        <mxCell id="kDbeRx198hkHHgi6UkS8-90" value="" style="endArrow=none;html=1;rounded=0;entryX=0.406;entryY=1.02;entryDx=0;entryDy=0;entryPerimeter=0;exitX=0.619;exitY=0.012;exitDx=0;exitDy=0;exitPerimeter=0;" parent="1" source="kDbeRx198hkHHgi6UkS8-88" target="_bViFIgrCbP23LB_-BVB-1" edge="1">
          <mxGeometry width="50" height="50" relative="1" as="geometry">
            <mxPoint x="270" y="110" as="sourcePoint" />
            <mxPoint x="320" y="60" as="targetPoint" />
          </mxGeometry>
        </mxCell>
        <mxCell id="kDbeRx198hkHHgi6UkS8-91" value="" style="endArrow=none;html=1;rounded=0;exitX=0.273;exitY=0.054;exitDx=0;exitDy=0;exitPerimeter=0;" parent="1" source="kDbeRx198hkHHgi6UkS8-88" edge="1">
          <mxGeometry width="50" height="50" relative="1" as="geometry">
            <mxPoint x="309" y="60" as="sourcePoint" />
            <mxPoint x="290" y="-10" as="targetPoint" />
          </mxGeometry>
        </mxCell>
        <mxCell id="kDbeRx198hkHHgi6UkS8-92" value="" style="endArrow=none;html=1;rounded=0;entryX=0.642;entryY=1.006;entryDx=0;entryDy=0;entryPerimeter=0;exitX=0;exitY=0;exitDx=0;exitDy=0;" parent="1" source="kDbeRx198hkHHgi6UkS8-122" target="kDbeRx198hkHHgi6UkS8-82" edge="1">
          <mxGeometry width="50" height="50" relative="1" as="geometry">
            <mxPoint x="520" y="636" as="sourcePoint" />
            <mxPoint x="570" y="586" as="targetPoint" />
          </mxGeometry>
        </mxCell>
        <mxCell id="kDbeRx198hkHHgi6UkS8-93" value="" style="endArrow=none;html=1;rounded=0;exitX=0.559;exitY=1.025;exitDx=0;exitDy=0;exitPerimeter=0;entryX=0.604;entryY=0.009;entryDx=0;entryDy=0;entryPerimeter=0;" parent="1" source="kDbeRx198hkHHgi6UkS8-81" target="kDbeRx198hkHHgi6UkS8-122" edge="1">
          <mxGeometry width="50" height="50" relative="1" as="geometry">
            <mxPoint x="530" y="646" as="sourcePoint" />
            <mxPoint x="460" y="566" as="targetPoint" />
          </mxGeometry>
        </mxCell>
        <mxCell id="kDbeRx198hkHHgi6UkS8-94" value="" style="endArrow=none;html=1;rounded=0;entryX=0.21;entryY=0.009;entryDx=0;entryDy=0;exitX=0.5;exitY=1;exitDx=0;exitDy=0;entryPerimeter=0;" parent="1" source="kDbeRx198hkHHgi6UkS8-80" target="kDbeRx198hkHHgi6UkS8-122" edge="1">
          <mxGeometry width="50" height="50" relative="1" as="geometry">
            <mxPoint x="540" y="656" as="sourcePoint" />
            <mxPoint x="590" y="606" as="targetPoint" />
          </mxGeometry>
        </mxCell>
        <mxCell id="kDbeRx198hkHHgi6UkS8-96" value="" style="endArrow=none;html=1;rounded=0;entryX=0.5;entryY=1;entryDx=0;entryDy=0;exitX=0.893;exitY=-0.024;exitDx=0;exitDy=0;exitPerimeter=0;" parent="1" source="kDbeRx198hkHHgi6UkS8-122" target="kDbeRx198hkHHgi6UkS8-79" edge="1">
          <mxGeometry width="50" height="50" relative="1" as="geometry">
            <mxPoint x="510" y="636" as="sourcePoint" />
            <mxPoint x="560" y="586" as="targetPoint" />
          </mxGeometry>
        </mxCell>
        <mxCell id="kDbeRx198hkHHgi6UkS8-97" value="" style="endArrow=none;html=1;rounded=0;entryX=1;entryY=0.5;entryDx=0;entryDy=0;exitX=0;exitY=0.25;exitDx=0;exitDy=0;" parent="1" source="kDbeRx198hkHHgi6UkS8-122" target="kDbeRx198hkHHgi6UkS8-83" edge="1">
          <mxGeometry width="50" height="50" relative="1" as="geometry">
            <mxPoint x="510" y="636" as="sourcePoint" />
            <mxPoint x="560" y="586" as="targetPoint" />
          </mxGeometry>
        </mxCell>
        <mxCell id="kDbeRx198hkHHgi6UkS8-98" value="" style="endArrow=none;html=1;rounded=0;exitX=1;exitY=0;exitDx=0;exitDy=0;entryX=0.346;entryY=1.02;entryDx=0;entryDy=0;entryPerimeter=0;" parent="1" source="kDbeRx198hkHHgi6UkS8-41" target="kDbeRx198hkHHgi6UkS8-35" edge="1">
          <mxGeometry width="50" height="50" relative="1" as="geometry">
            <mxPoint x="320" y="245" as="sourcePoint" />
            <mxPoint x="370" y="195" as="targetPoint" />
          </mxGeometry>
        </mxCell>
        <mxCell id="kDbeRx198hkHHgi6UkS8-99" value="Medicine" style="whiteSpace=wrap;html=1;align=center;" parent="1" vertex="1">
          <mxGeometry x="-430" y="486.5" width="100" height="40" as="geometry" />
        </mxCell>
        <mxCell id="kDbeRx198hkHHgi6UkS8-100" value="&lt;u&gt;Code&lt;/u&gt;" style="ellipse;whiteSpace=wrap;html=1;align=center;" parent="1" vertex="1">
          <mxGeometry x="-540" y="564" width="100" height="30" as="geometry" />
        </mxCell>
        <mxCell id="kDbeRx198hkHHgi6UkS8-101" value="Medicine_name" style="ellipse;whiteSpace=wrap;html=1;align=center;" parent="1" vertex="1">
          <mxGeometry x="-330" y="564" width="110" height="30" as="geometry" />
        </mxCell>
        <mxCell id="kDbeRx198hkHHgi6UkS8-102" value="&lt;u&gt;q&lt;/u&gt;uantity Orderd" style="ellipse;whiteSpace=wrap;html=1;align=center;" parent="1" vertex="1">
          <mxGeometry x="-550" y="466.5" width="100" height="30" as="geometry" />
        </mxCell>
        <mxCell id="kDbeRx198hkHHgi6UkS8-103" value="cost" style="ellipse;whiteSpace=wrap;html=1;align=center;" parent="1" vertex="1">
          <mxGeometry x="-550" y="516.5" width="100" height="30" as="geometry" />
        </mxCell>
        <mxCell id="kDbeRx198hkHHgi6UkS8-104" value="Expire date" style="ellipse;whiteSpace=wrap;html=1;align=center;" parent="1" vertex="1">
          <mxGeometry x="-650" y="486.5" width="100" height="30" as="geometry" />
        </mxCell>
        <mxCell id="kDbeRx198hkHHgi6UkS8-105" value="quantity on hand" style="ellipse;whiteSpace=wrap;html=1;align=center;" parent="1" vertex="1">
          <mxGeometry x="-440" y="564" width="100" height="30" as="geometry" />
        </mxCell>
        <mxCell id="kDbeRx198hkHHgi6UkS8-106" value="" style="endArrow=none;html=1;rounded=0;entryX=1;entryY=0.5;entryDx=0;entryDy=0;exitX=0;exitY=0.5;exitDx=0;exitDy=0;" parent="1" source="kDbeRx198hkHHgi6UkS8-99" target="kDbeRx198hkHHgi6UkS8-104" edge="1">
          <mxGeometry width="50" height="50" relative="1" as="geometry">
            <mxPoint x="-770" y="626.5" as="sourcePoint" />
            <mxPoint x="-720" y="576.5" as="targetPoint" />
          </mxGeometry>
        </mxCell>
        <mxCell id="kDbeRx198hkHHgi6UkS8-107" value="" style="endArrow=none;html=1;rounded=0;entryX=0;entryY=0.75;entryDx=0;entryDy=0;exitX=1;exitY=0;exitDx=0;exitDy=0;" parent="1" source="kDbeRx198hkHHgi6UkS8-103" target="kDbeRx198hkHHgi6UkS8-99" edge="1">
          <mxGeometry width="50" height="50" relative="1" as="geometry">
            <mxPoint x="-760" y="636.5" as="sourcePoint" />
            <mxPoint x="-710" y="586.5" as="targetPoint" />
          </mxGeometry>
        </mxCell>
        <mxCell id="kDbeRx198hkHHgi6UkS8-108" value="" style="endArrow=none;html=1;rounded=0;entryX=0;entryY=0.25;entryDx=0;entryDy=0;exitX=1;exitY=0.5;exitDx=0;exitDy=0;" parent="1" source="kDbeRx198hkHHgi6UkS8-102" target="kDbeRx198hkHHgi6UkS8-99" edge="1">
          <mxGeometry width="50" height="50" relative="1" as="geometry">
            <mxPoint x="-750" y="646.5" as="sourcePoint" />
            <mxPoint x="-700" y="596.5" as="targetPoint" />
          </mxGeometry>
        </mxCell>
        <mxCell id="kDbeRx198hkHHgi6UkS8-109" value="" style="endArrow=none;html=1;rounded=0;entryX=0.5;entryY=0;entryDx=0;entryDy=0;exitX=0;exitY=1;exitDx=0;exitDy=0;" parent="1" source="kDbeRx198hkHHgi6UkS8-99" target="kDbeRx198hkHHgi6UkS8-100" edge="1">
          <mxGeometry width="50" height="50" relative="1" as="geometry">
            <mxPoint x="-780" y="626.5" as="sourcePoint" />
            <mxPoint x="-730" y="576.5" as="targetPoint" />
          </mxGeometry>
        </mxCell>
        <mxCell id="kDbeRx198hkHHgi6UkS8-110" value="" style="endArrow=none;html=1;rounded=0;entryX=0.278;entryY=0.037;entryDx=0;entryDy=0;exitX=0.637;exitY=0.987;exitDx=0;exitDy=0;exitPerimeter=0;entryPerimeter=0;" parent="1" source="kDbeRx198hkHHgi6UkS8-99" target="kDbeRx198hkHHgi6UkS8-101" edge="1">
          <mxGeometry width="50" height="50" relative="1" as="geometry">
            <mxPoint x="-780" y="626.5" as="sourcePoint" />
            <mxPoint x="-730" y="576.5" as="targetPoint" />
          </mxGeometry>
        </mxCell>
        <mxCell id="kDbeRx198hkHHgi6UkS8-111" value="" style="endArrow=none;html=1;rounded=0;entryX=0.389;entryY=0.037;entryDx=0;entryDy=0;exitX=0.25;exitY=1;exitDx=0;exitDy=0;entryPerimeter=0;" parent="1" source="kDbeRx198hkHHgi6UkS8-99" target="kDbeRx198hkHHgi6UkS8-105" edge="1">
          <mxGeometry width="50" height="50" relative="1" as="geometry">
            <mxPoint x="-780" y="626.5" as="sourcePoint" />
            <mxPoint x="-730" y="576.5" as="targetPoint" />
          </mxGeometry>
        </mxCell>
        <mxCell id="kDbeRx198hkHHgi6UkS8-116" value="" style="ellipse;whiteSpace=wrap;html=1;aspect=fixed;" parent="1" vertex="1">
          <mxGeometry x="590" y="420" width="30" height="30" as="geometry" />
        </mxCell>
        <mxCell id="kDbeRx198hkHHgi6UkS8-117" value="" style="endArrow=none;html=1;rounded=0;exitX=1;exitY=0.5;exitDx=0;exitDy=0;" parent="1" source="kDbeRx198hkHHgi6UkS8-116" edge="1">
          <mxGeometry width="50" height="50" relative="1" as="geometry">
            <mxPoint x="681" y="540" as="sourcePoint" />
            <mxPoint x="860" y="480" as="targetPoint" />
          </mxGeometry>
        </mxCell>
        <mxCell id="kDbeRx198hkHHgi6UkS8-119" value="" style="endArrow=none;html=1;rounded=0;entryX=0;entryY=0.333;entryDx=0;entryDy=0;entryPerimeter=0;exitX=1;exitY=0.5;exitDx=0;exitDy=0;" parent="1" source="kDbeRx198hkHHgi6UkS8-51" target="kDbeRx198hkHHgi6UkS8-116" edge="1">
          <mxGeometry width="50" height="50" relative="1" as="geometry">
            <mxPoint x="320" y="400" as="sourcePoint" />
            <mxPoint x="370" y="350" as="targetPoint" />
          </mxGeometry>
        </mxCell>
        <mxCell id="kDbeRx198hkHHgi6UkS8-120" value="" style="endArrow=none;html=1;rounded=0;entryX=0.29;entryY=0.953;entryDx=0;entryDy=0;entryPerimeter=0;exitX=1;exitY=0.5;exitDx=0;exitDy=0;" parent="1" source="kDbeRx198hkHHgi6UkS8-122" target="kDbeRx198hkHHgi6UkS8-116" edge="1">
          <mxGeometry width="50" height="50" relative="1" as="geometry">
            <mxPoint x="330" y="456" as="sourcePoint" />
            <mxPoint x="598.79" y="492.6100000000001" as="targetPoint" />
          </mxGeometry>
        </mxCell>
        <mxCell id="kDbeRx198hkHHgi6UkS8-121" value="" style="endArrow=none;html=1;rounded=0;entryX=1;entryY=0;entryDx=0;entryDy=0;exitX=0.421;exitY=0.995;exitDx=0;exitDy=0;exitPerimeter=0;" parent="1" source="kDbeRx198hkHHgi6UkS8-123" target="kDbeRx198hkHHgi6UkS8-116" edge="1">
          <mxGeometry width="50" height="50" relative="1" as="geometry">
            <mxPoint x="660" y="340" as="sourcePoint" />
            <mxPoint x="390" y="370" as="targetPoint" />
          </mxGeometry>
        </mxCell>
        <mxCell id="kDbeRx198hkHHgi6UkS8-122" value="Surgery_need patient" style="whiteSpace=wrap;html=1;align=center;" parent="1" vertex="1">
          <mxGeometry x="425" y="576" width="100" height="40" as="geometry" />
        </mxCell>
        <mxCell id="kDbeRx198hkHHgi6UkS8-123" value="surgery_Nurse" style="whiteSpace=wrap;html=1;align=center;" parent="1" vertex="1">
          <mxGeometry x="640" y="250" width="100" height="40" as="geometry" />
        </mxCell>
        <mxCell id="kDbeRx198hkHHgi6UkS8-124" value="d" style="ellipse;whiteSpace=wrap;html=1;aspect=fixed;" parent="1" vertex="1">
          <mxGeometry x="650" y="190" width="30" height="30" as="geometry" />
        </mxCell>
        <mxCell id="kDbeRx198hkHHgi6UkS8-125" value="" style="endArrow=none;html=1;rounded=0;entryX=0.371;entryY=1.006;entryDx=0;entryDy=0;entryPerimeter=0;exitX=0.44;exitY=0;exitDx=0;exitDy=0;exitPerimeter=0;" parent="1" source="kDbeRx198hkHHgi6UkS8-124" target="kDbeRx198hkHHgi6UkS8-6" edge="1">
          <mxGeometry width="50" height="50" relative="1" as="geometry">
            <mxPoint x="490" y="170" as="sourcePoint" />
            <mxPoint x="540" y="120" as="targetPoint" />
          </mxGeometry>
        </mxCell>
        <mxCell id="kDbeRx198hkHHgi6UkS8-126" value="" style="endArrow=none;html=1;rounded=0;entryX=0.399;entryY=-0.043;entryDx=0;entryDy=0;entryPerimeter=0;exitX=0.5;exitY=1;exitDx=0;exitDy=0;" parent="1" source="kDbeRx198hkHHgi6UkS8-124" target="kDbeRx198hkHHgi6UkS8-123" edge="1">
          <mxGeometry width="50" height="50" relative="1" as="geometry">
            <mxPoint x="490" y="170" as="sourcePoint" />
            <mxPoint x="540" y="120" as="targetPoint" />
          </mxGeometry>
        </mxCell>
        <mxCell id="kDbeRx198hkHHgi6UkS8-129" value="contract _basic" style="whiteSpace=wrap;html=1;align=center;" parent="1" vertex="1">
          <mxGeometry x="-110" y="74" width="100" height="40" as="geometry" />
        </mxCell>
        <mxCell id="kDbeRx198hkHHgi6UkS8-130" value="Monthly_salaried" style="whiteSpace=wrap;html=1;align=center;" parent="1" vertex="1">
          <mxGeometry x="-110" y="-2" width="100" height="40" as="geometry" />
        </mxCell>
        <mxCell id="kDbeRx198hkHHgi6UkS8-131" value="" style="endArrow=none;html=1;rounded=0;exitX=1;exitY=0.25;exitDx=0;exitDy=0;entryX=0;entryY=0.5;entryDx=0;entryDy=0;" parent="1" source="kDbeRx198hkHHgi6UkS8-130" target="kDbeRx198hkHHgi6UkS8-88" edge="1">
          <mxGeometry width="50" height="50" relative="1" as="geometry">
            <mxPoint x="230" y="130" as="sourcePoint" />
            <mxPoint x="280" y="80" as="targetPoint" />
          </mxGeometry>
        </mxCell>
        <mxCell id="kDbeRx198hkHHgi6UkS8-132" value="" style="endArrow=none;html=1;rounded=0;exitX=1;exitY=0.5;exitDx=0;exitDy=0;" parent="1" source="kDbeRx198hkHHgi6UkS8-129" edge="1">
          <mxGeometry width="50" height="50" relative="1" as="geometry">
            <mxPoint x="230" y="130" as="sourcePoint" />
            <mxPoint x="280" y="50" as="targetPoint" />
          </mxGeometry>
        </mxCell>
        <mxCell id="kDbeRx198hkHHgi6UkS8-134" value="" style="verticalLabelPosition=bottom;verticalAlign=top;html=1;shape=mxgraph.basic.arc;startAngle=0.6543361408088788;endAngle=0.2406487203793617;direction=north;" parent="1" vertex="1">
          <mxGeometry x="60" y="9" width="20" height="20" as="geometry" />
        </mxCell>
        <mxCell id="kDbeRx198hkHHgi6UkS8-135" value="" style="verticalLabelPosition=bottom;verticalAlign=top;html=1;shape=mxgraph.basic.arc;startAngle=0.611195164644138;endAngle=0.17542418301847543;direction=north;" parent="1" vertex="1">
          <mxGeometry x="80" y="68" width="20" height="20" as="geometry" />
        </mxCell>
        <mxCell id="kDbeRx198hkHHgi6UkS8-136" value="d" style="ellipse;whiteSpace=wrap;html=1;aspect=fixed;" parent="1" vertex="1">
          <mxGeometry x="320" y="712.5" width="30" height="30" as="geometry" />
        </mxCell>
        <mxCell id="kDbeRx198hkHHgi6UkS8-137" value="" style="endArrow=none;html=1;rounded=0;exitX=0.5;exitY=0;exitDx=0;exitDy=0;entryX=0;entryY=0.5;entryDx=0;entryDy=0;movable=1;resizable=1;rotatable=1;deletable=1;editable=1;locked=0;connectable=1;" parent="1" source="kDbeRx198hkHHgi6UkS8-136" target="kDbeRx198hkHHgi6UkS8-122" edge="1">
          <mxGeometry width="50" height="50" relative="1" as="geometry">
            <mxPoint x="330" y="690" as="sourcePoint" />
            <mxPoint x="410" y="532.5" as="targetPoint" />
          </mxGeometry>
        </mxCell>
        <mxCell id="kDbeRx198hkHHgi6UkS8-138" value="" style="endArrow=none;html=1;rounded=0;exitX=0.5;exitY=0;exitDx=0;exitDy=0;entryX=0.5;entryY=1;entryDx=0;entryDy=0;movable=1;resizable=1;rotatable=1;deletable=1;editable=1;locked=0;connectable=1;" parent="1" source="kDbeRx198hkHHgi6UkS8-56" target="kDbeRx198hkHHgi6UkS8-136" edge="1">
          <mxGeometry width="50" height="50" relative="1" as="geometry">
            <mxPoint x="345" y="723" as="sourcePoint" />
            <mxPoint x="425" y="660" as="targetPoint" />
          </mxGeometry>
        </mxCell>
        <mxCell id="kDbeRx198hkHHgi6UkS8-140" value="" style="verticalLabelPosition=bottom;verticalAlign=top;html=1;shape=mxgraph.basic.arc;startAngle=0.08717553071210843;endAngle=0.6762081911747834;direction=north;" parent="1" vertex="1">
          <mxGeometry x="372" y="644" width="20" height="20" as="geometry" />
        </mxCell>
        <mxCell id="kDbeRx198hkHHgi6UkS8-141" value="" style="verticalLabelPosition=bottom;verticalAlign=top;html=1;shape=mxgraph.basic.arc;startAngle=0.7149073279575694;endAngle=0.32379180882521663;direction=north;" parent="1" vertex="1">
          <mxGeometry x="597.5" y="432.5" width="15" height="10" as="geometry" />
        </mxCell>
        <mxCell id="kDbeRx198hkHHgi6UkS8-142" value="" style="verticalLabelPosition=bottom;verticalAlign=top;html=1;shape=mxgraph.basic.arc;startAngle=0.16929276639145238;endAngle=0.9128244692878915;direction=north;" parent="1" vertex="1">
          <mxGeometry x="700" y="442" width="20" height="20" as="geometry" />
        </mxCell>
        <mxCell id="kDbeRx198hkHHgi6UkS8-143" value="type of contract" style="ellipse;whiteSpace=wrap;html=1;align=center;" parent="1" vertex="1">
          <mxGeometry x="270" y="270" width="100" height="40" as="geometry" />
        </mxCell>
        <mxCell id="kDbeRx198hkHHgi6UkS8-144" value="length of contact" style="ellipse;whiteSpace=wrap;html=1;align=center;" parent="1" vertex="1">
          <mxGeometry x="408" y="290" width="100" height="40" as="geometry" />
        </mxCell>
        <mxCell id="kDbeRx198hkHHgi6UkS8-145" value="" style="endArrow=none;html=1;rounded=0;entryX=0;entryY=1;entryDx=0;entryDy=0;exitX=1;exitY=0.25;exitDx=0;exitDy=0;" parent="1" source="kDbeRx198hkHHgi6UkS8-51" target="kDbeRx198hkHHgi6UkS8-144" edge="1">
          <mxGeometry width="50" height="50" relative="1" as="geometry">
            <mxPoint x="-80" y="120" as="sourcePoint" />
            <mxPoint x="-30" y="70" as="targetPoint" />
          </mxGeometry>
        </mxCell>
        <mxCell id="kDbeRx198hkHHgi6UkS8-146" value="" style="endArrow=none;html=1;rounded=0;entryX=0.5;entryY=1;entryDx=0;entryDy=0;exitX=0.604;exitY=-0.006;exitDx=0;exitDy=0;exitPerimeter=0;" parent="1" source="kDbeRx198hkHHgi6UkS8-51" target="kDbeRx198hkHHgi6UkS8-143" edge="1">
          <mxGeometry width="50" height="50" relative="1" as="geometry">
            <mxPoint x="320" y="340" as="sourcePoint" />
            <mxPoint x="433" y="334" as="targetPoint" />
          </mxGeometry>
        </mxCell>
        <mxCell id="kDbeRx198hkHHgi6UkS8-147" value="allergy" style="ellipse;whiteSpace=wrap;html=1;align=center;" parent="1" vertex="1">
          <mxGeometry x="285" y="880" width="100" height="30" as="geometry" />
        </mxCell>
        <mxCell id="kDbeRx198hkHHgi6UkS8-148" value="" style="endArrow=none;html=1;rounded=0;exitX=0.451;exitY=-0.006;exitDx=0;exitDy=0;exitPerimeter=0;entryX=0.5;entryY=1;entryDx=0;entryDy=0;" parent="1" source="kDbeRx198hkHHgi6UkS8-147" target="kDbeRx198hkHHgi6UkS8-56" edge="1">
          <mxGeometry width="50" height="50" relative="1" as="geometry">
            <mxPoint x="430" y="770" as="sourcePoint" />
            <mxPoint x="330" y="810" as="targetPoint" />
          </mxGeometry>
        </mxCell>
        <mxCell id="kDbeRx198hkHHgi6UkS8-151" value="location" style="ellipse;whiteSpace=wrap;html=1;align=center;" parent="1" vertex="1">
          <mxGeometry x="57" y="742.5" width="100" height="30" as="geometry" />
        </mxCell>
        <mxCell id="kDbeRx198hkHHgi6UkS8-152" value="Bed_number" style="ellipse;whiteSpace=wrap;html=1;align=center;dashed=1;" parent="1" vertex="1">
          <mxGeometry x="-60" y="715" width="100" height="30" as="geometry" />
        </mxCell>
        <mxCell id="kDbeRx198hkHHgi6UkS8-153" value="room number" style="ellipse;whiteSpace=wrap;html=1;align=center;dashed=1;" parent="1" vertex="1">
          <mxGeometry x="-60" y="750" width="100" height="30" as="geometry" />
        </mxCell>
        <mxCell id="kDbeRx198hkHHgi6UkS8-154" value="nursing unit" style="ellipse;whiteSpace=wrap;html=1;align=center;dashed=1;" parent="1" vertex="1">
          <mxGeometry x="-60" y="785" width="100" height="30" as="geometry" />
        </mxCell>
        <mxCell id="kDbeRx198hkHHgi6UkS8-157" value="" style="endArrow=none;dashed=1;html=1;rounded=0;exitX=1;exitY=0.5;exitDx=0;exitDy=0;entryX=0.029;entryY=0.321;entryDx=0;entryDy=0;entryPerimeter=0;" parent="1" source="kDbeRx198hkHHgi6UkS8-152" target="kDbeRx198hkHHgi6UkS8-151" edge="1">
          <mxGeometry width="50" height="50" relative="1" as="geometry">
            <mxPoint x="180" y="720" as="sourcePoint" />
            <mxPoint x="230" y="670" as="targetPoint" />
          </mxGeometry>
        </mxCell>
        <mxCell id="kDbeRx198hkHHgi6UkS8-158" value="" style="endArrow=none;dashed=1;html=1;rounded=0;exitX=1;exitY=0.5;exitDx=0;exitDy=0;entryX=0;entryY=0.5;entryDx=0;entryDy=0;" parent="1" source="kDbeRx198hkHHgi6UkS8-153" target="kDbeRx198hkHHgi6UkS8-151" edge="1">
          <mxGeometry width="50" height="50" relative="1" as="geometry">
            <mxPoint x="50" y="740" as="sourcePoint" />
            <mxPoint x="111" y="750" as="targetPoint" />
          </mxGeometry>
        </mxCell>
        <mxCell id="kDbeRx198hkHHgi6UkS8-159" value="" style="endArrow=none;dashed=1;html=1;rounded=0;exitX=1;exitY=0.5;exitDx=0;exitDy=0;entryX=-0.016;entryY=0.707;entryDx=0;entryDy=0;entryPerimeter=0;" parent="1" source="kDbeRx198hkHHgi6UkS8-154" target="kDbeRx198hkHHgi6UkS8-151" edge="1">
          <mxGeometry width="50" height="50" relative="1" as="geometry">
            <mxPoint x="50" y="775" as="sourcePoint" />
            <mxPoint x="108" y="755" as="targetPoint" />
          </mxGeometry>
        </mxCell>
        <mxCell id="kDbeRx198hkHHgi6UkS8-59" value="" style="endArrow=none;html=1;rounded=0;exitX=0.915;exitY=0.027;exitDx=0;exitDy=0;entryX=0.073;entryY=0.744;entryDx=0;entryDy=0;exitPerimeter=0;entryPerimeter=0;" parent="1" source="kDbeRx198hkHHgi6UkS8-56" target="kDbeRx198hkHHgi6UkS8-62" edge="1">
          <mxGeometry width="50" height="50" relative="1" as="geometry">
            <mxPoint x="280" y="765" as="sourcePoint" />
            <mxPoint x="335" y="865" as="targetPoint" />
          </mxGeometry>
        </mxCell>
        <mxCell id="kDbeRx198hkHHgi6UkS8-161" value="" style="endArrow=none;html=1;rounded=0;exitX=1;exitY=0.5;exitDx=0;exitDy=0;entryX=-0.015;entryY=0.129;entryDx=0;entryDy=0;entryPerimeter=0;" parent="1" source="kDbeRx198hkHHgi6UkS8-151" target="kDbeRx198hkHHgi6UkS8-56" edge="1">
          <mxGeometry width="50" height="50" relative="1" as="geometry">
            <mxPoint x="382" y="779" as="sourcePoint" />
            <mxPoint x="457" y="746" as="targetPoint" />
          </mxGeometry>
        </mxCell>
        <mxCell id="kDbeRx198hkHHgi6UkS8-163" value="serve" style="shape=rhombus;perimeter=rhombusPerimeter;whiteSpace=wrap;html=1;align=center;" parent="1" vertex="1">
          <mxGeometry x="-210" y="295" width="120" height="60" as="geometry" />
        </mxCell>
        <mxCell id="kDbeRx198hkHHgi6UkS8-164" value="Monitor" style="shape=rhombus;perimeter=rhombusPerimeter;whiteSpace=wrap;html=1;align=center;" parent="1" vertex="1">
          <mxGeometry x="-50" y="295" width="120" height="60" as="geometry" />
        </mxCell>
        <mxCell id="kDbeRx198hkHHgi6UkS8-165" value="" style="endArrow=none;html=1;rounded=0;entryX=0;entryY=1;entryDx=0;entryDy=0;exitX=0.5;exitY=0;exitDx=0;exitDy=0;" parent="1" source="kDbeRx198hkHHgi6UkS8-164" target="kDbeRx198hkHHgi6UkS8-35" edge="1">
          <mxGeometry width="50" height="50" relative="1" as="geometry">
            <mxPoint x="220" y="430" as="sourcePoint" />
            <mxPoint x="270" y="380" as="targetPoint" />
          </mxGeometry>
        </mxCell>
        <mxCell id="kDbeRx198hkHHgi6UkS8-166" value="" style="endArrow=none;html=1;rounded=0;entryX=0;entryY=0.25;entryDx=0;entryDy=0;exitX=0.5;exitY=1;exitDx=0;exitDy=0;" parent="1" source="kDbeRx198hkHHgi6UkS8-164" target="kDbeRx198hkHHgi6UkS8-40" edge="1">
          <mxGeometry width="50" height="50" relative="1" as="geometry">
            <mxPoint x="20" y="305" as="sourcePoint" />
            <mxPoint x="133" y="265" as="targetPoint" />
          </mxGeometry>
        </mxCell>
        <mxCell id="kDbeRx198hkHHgi6UkS8-167" value="" style="endArrow=none;html=1;rounded=0;entryX=0;entryY=0.75;entryDx=0;entryDy=0;exitX=0.5;exitY=0;exitDx=0;exitDy=0;" parent="1" source="kDbeRx198hkHHgi6UkS8-163" target="kDbeRx198hkHHgi6UkS8-35" edge="1">
          <mxGeometry width="50" height="50" relative="1" as="geometry">
            <mxPoint x="220" y="430" as="sourcePoint" />
            <mxPoint x="270" y="380" as="targetPoint" />
          </mxGeometry>
        </mxCell>
        <mxCell id="kDbeRx198hkHHgi6UkS8-168" value="" style="endArrow=none;html=1;rounded=0;entryX=0.25;entryY=0;entryDx=0;entryDy=0;exitX=0.5;exitY=1;exitDx=0;exitDy=0;" parent="1" source="kDbeRx198hkHHgi6UkS8-163" target="kDbeRx198hkHHgi6UkS8-56" edge="1">
          <mxGeometry width="50" height="50" relative="1" as="geometry">
            <mxPoint x="-140" y="305" as="sourcePoint" />
            <mxPoint x="133" y="255" as="targetPoint" />
          </mxGeometry>
        </mxCell>
        <mxCell id="kDbeRx198hkHHgi6UkS8-169" value="M" style="text;html=1;align=center;verticalAlign=middle;resizable=0;points=[];autosize=1;strokeColor=none;fillColor=none;" parent="1" vertex="1">
          <mxGeometry x="277" y="728" width="30" height="30" as="geometry" />
        </mxCell>
        <mxCell id="kDbeRx198hkHHgi6UkS8-170" value="1" style="text;html=1;align=center;verticalAlign=middle;resizable=0;points=[];autosize=1;strokeColor=none;fillColor=none;" parent="1" vertex="1">
          <mxGeometry x="37" y="228" width="30" height="30" as="geometry" />
        </mxCell>
        <mxCell id="kDbeRx198hkHHgi6UkS8-171" value="M" style="text;html=1;align=center;verticalAlign=middle;resizable=0;points=[];autosize=1;strokeColor=none;fillColor=none;" parent="1" vertex="1">
          <mxGeometry x="97" y="258" width="30" height="30" as="geometry" />
        </mxCell>
        <mxCell id="kDbeRx198hkHHgi6UkS8-172" value="1" style="text;html=1;align=center;verticalAlign=middle;resizable=0;points=[];autosize=1;strokeColor=none;fillColor=none;" parent="1" vertex="1">
          <mxGeometry x="77" y="338" width="30" height="30" as="geometry" />
        </mxCell>
        <mxCell id="kDbeRx198hkHHgi6UkS8-173" value="take" style="shape=rhombus;perimeter=rhombusPerimeter;whiteSpace=wrap;html=1;align=center;" parent="1" vertex="1">
          <mxGeometry x="-230" y="490" width="120" height="60" as="geometry" />
        </mxCell>
        <mxCell id="kDbeRx198hkHHgi6UkS8-174" value="" style="endArrow=none;html=1;rounded=0;exitX=1;exitY=0.5;exitDx=0;exitDy=0;entryX=0;entryY=0;entryDx=0;entryDy=0;" parent="1" source="kDbeRx198hkHHgi6UkS8-173" target="kDbeRx198hkHHgi6UkS8-56" edge="1">
          <mxGeometry width="50" height="50" relative="1" as="geometry">
            <mxPoint x="-140" y="365" as="sourcePoint" />
            <mxPoint x="290" y="670" as="targetPoint" />
          </mxGeometry>
        </mxCell>
        <mxCell id="kDbeRx198hkHHgi6UkS8-175" value="" style="endArrow=none;html=1;rounded=0;entryX=0;entryY=0.5;entryDx=0;entryDy=0;exitX=1.01;exitY=0.605;exitDx=0;exitDy=0;exitPerimeter=0;" parent="1" source="kDbeRx198hkHHgi6UkS8-99" target="kDbeRx198hkHHgi6UkS8-173" edge="1">
          <mxGeometry width="50" height="50" relative="1" as="geometry">
            <mxPoint x="-356" y="536" as="sourcePoint" />
            <mxPoint x="-289" y="575" as="targetPoint" />
          </mxGeometry>
        </mxCell>
        <mxCell id="kDbeRx198hkHHgi6UkS8-176" value="M" style="text;html=1;align=center;verticalAlign=middle;resizable=0;points=[];autosize=1;strokeColor=none;fillColor=none;" parent="1" vertex="1">
          <mxGeometry x="-323" y="488" width="30" height="30" as="geometry" />
        </mxCell>
        <mxCell id="kDbeRx198hkHHgi6UkS8-178" value="M" style="text;html=1;align=center;verticalAlign=middle;resizable=0;points=[];autosize=1;strokeColor=none;fillColor=none;" parent="1" vertex="1">
          <mxGeometry x="228" y="737.5" width="30" height="30" as="geometry" />
        </mxCell>
        <mxCell id="kDbeRx198hkHHgi6UkS8-185" value="perform" style="shape=rhombus;perimeter=rhombusPerimeter;whiteSpace=wrap;html=1;align=center;" parent="1" vertex="1">
          <mxGeometry x="780" y="295" width="120" height="60" as="geometry" />
        </mxCell>
        <mxCell id="kDbeRx198hkHHgi6UkS8-186" value="" style="endArrow=none;html=1;rounded=0;entryX=1;entryY=0.5;entryDx=0;entryDy=0;exitX=0.5;exitY=0;exitDx=0;exitDy=0;" parent="1" source="kDbeRx198hkHHgi6UkS8-185" target="kDbeRx198hkHHgi6UkS8-123" edge="1">
          <mxGeometry width="50" height="50" relative="1" as="geometry">
            <mxPoint x="430" y="310" as="sourcePoint" />
            <mxPoint x="480" y="260" as="targetPoint" />
          </mxGeometry>
        </mxCell>
        <mxCell id="kDbeRx198hkHHgi6UkS8-187" value="" style="endArrow=none;html=1;rounded=0;entryX=0.444;entryY=0;entryDx=0;entryDy=0;exitX=0.5;exitY=1;exitDx=0;exitDy=0;entryPerimeter=0;" parent="1" source="kDbeRx198hkHHgi6UkS8-185" target="kDbeRx198hkHHgi6UkS8-77" edge="1">
          <mxGeometry width="50" height="50" relative="1" as="geometry">
            <mxPoint x="692" y="300" as="sourcePoint" />
            <mxPoint x="626" y="434" as="targetPoint" />
          </mxGeometry>
        </mxCell>
        <mxCell id="kDbeRx198hkHHgi6UkS8-188" value="1" style="text;html=1;align=center;verticalAlign=middle;resizable=0;points=[];autosize=1;strokeColor=none;fillColor=none;" parent="1" vertex="1">
          <mxGeometry x="897" y="418" width="30" height="30" as="geometry" />
        </mxCell>
        <mxCell id="kDbeRx198hkHHgi6UkS8-189" value="M" style="text;html=1;align=center;verticalAlign=middle;resizable=0;points=[];autosize=1;strokeColor=none;fillColor=none;" parent="1" vertex="1">
          <mxGeometry x="740" y="240" width="30" height="30" as="geometry" />
        </mxCell>
        <mxCell id="kDbeRx198hkHHgi6UkS8-190" value="Take" style="shape=rhombus;perimeter=rhombusPerimeter;whiteSpace=wrap;html=1;align=center;" parent="1" vertex="1">
          <mxGeometry x="670" y="549" width="120" height="60" as="geometry" />
        </mxCell>
        <mxCell id="kDbeRx198hkHHgi6UkS8-191" value="" style="endArrow=none;html=1;rounded=0;entryX=0.5;entryY=1;entryDx=0;entryDy=0;exitX=1;exitY=0.5;exitDx=0;exitDy=0;" parent="1" source="kDbeRx198hkHHgi6UkS8-190" target="kDbeRx198hkHHgi6UkS8-77" edge="1">
          <mxGeometry width="50" height="50" relative="1" as="geometry">
            <mxPoint x="430" y="420" as="sourcePoint" />
            <mxPoint x="480" y="370" as="targetPoint" />
          </mxGeometry>
        </mxCell>
        <mxCell id="kDbeRx198hkHHgi6UkS8-192" value="" style="endArrow=none;html=1;rounded=0;entryX=0;entryY=0.5;entryDx=0;entryDy=0;exitX=1;exitY=0.75;exitDx=0;exitDy=0;" parent="1" source="kDbeRx198hkHHgi6UkS8-122" target="kDbeRx198hkHHgi6UkS8-190" edge="1">
          <mxGeometry width="50" height="50" relative="1" as="geometry">
            <mxPoint x="800" y="589" as="sourcePoint" />
            <mxPoint x="920" y="500" as="targetPoint" />
          </mxGeometry>
        </mxCell>
        <mxCell id="kDbeRx198hkHHgi6UkS8-193" value="M" style="text;html=1;align=center;verticalAlign=middle;resizable=0;points=[];autosize=1;strokeColor=none;fillColor=none;" parent="1" vertex="1">
          <mxGeometry x="527" y="578" width="30" height="30" as="geometry" />
        </mxCell>
        <mxCell id="kDbeRx198hkHHgi6UkS8-194" value="M" style="text;html=1;align=center;verticalAlign=middle;resizable=0;points=[];autosize=1;strokeColor=none;fillColor=none;" parent="1" vertex="1">
          <mxGeometry x="907" y="498" width="30" height="30" as="geometry" />
        </mxCell>
      </root>
    </mxGraphModel>
  </diagram>
</mxfile>
